<?xml version="1.0" encoding="utf-8" standalone="no"?>
<!DOCTYPE svg PUBLIC "-//W3C//DTD SVG 1.1//EN"
  "http://www.w3.org/Graphics/SVG/1.1/DTD/svg11.dtd">
<!-- Created with matplotlib (http://matplotlib.sourceforge.net/) -->
<svg height="604pt" version="1.1" viewBox="0 0 1229 604" width="1229pt" xmlns="http://www.w3.org/2000/svg" xmlns:xlink="http://www.w3.org/1999/xlink">
 <defs>
  <style type="text/css">
*{stroke-linecap:square;stroke-linejoin:round;}
  </style>
 </defs>
 <g id="figure_1">
  <g id="patch_1">
   <path d="
M0 604.8
L1229.4 604.8
L1229.4 0
L0 0
z
" style="fill:#ffffff;"/>
  </g>
  <g id="axes_1">
   <g id="patch_2">
    <path d="
M153.675 544.32
L1106.46 544.32
L1106.46 60.48
L153.675 60.48
z
" style="fill:#ffffff;"/>
   </g>
   <g id="line2d_1">
    <path clip-path="url(#p308ec8ec34)" d="
M153.675 544.32
L155.581 530.496
L157.486 544.32
L159.392 530.496
L161.297 524.77
L163.203 530.496
L165.108 524.77
L167.014 513.409
L168.92 505.22
L170.825 513.409
L172.731 516.672
L174.636 530.496
L176.542 524.77
L178.447 530.496
L180.353 524.77
L182.259 530.496
L184.164 544.32
L186.07 530.496
L187.975 524.77
L189.881 530.496
L191.786 524.77
L193.692 513.409
L195.598 500.605
L197.503 494.477
L199.409 485.67
L201.314 494.477
L205.125 469.875
L207.031 456.889
L208.937 469.875
L210.842 473.831
L214.653 500.605
L216.559 513.409
L218.464 500.605
L220.37 502.848
L222.276 489.024
L224.181 487.322
L226.087 489.024
L227.992 487.322
L229.898 482.497
L231.803 494.477
L233.709 485.67
L235.615 494.477
L239.426 469.875
L241.331 482.497
L243.237 487.322
L245.142 500.605
L247.048 494.477
L248.953 482.497
L250.859 494.477
L252.765 485.67
L254.67 494.477
L256.576 482.497
L258.481 494.477
L260.387 505.22
L262.292 494.477
L264.198 485.67
L266.104 494.477
L268.009 485.67
L269.915 475.2
L271.82 466.12
L273.726 455.803
L275.631 463.713
L277.537 475.2
L279.443 482.497
L281.348 487.322
L283.254 500.605
L285.159 494.477
L287.065 485.67
L288.97 475.2
L290.876 482.497
L292.782 475.2
L294.687 485.67
L296.593 494.477
L298.498 500.605
L300.404 494.477
L302.309 500.605
L304.215 513.409
L306.121 516.672
L308.026 513.409
L309.932 500.605
L311.837 513.409
L313.743 500.605
L315.648 494.477
L317.554 482.497
L319.46 475.2
L321.365 466.12
L323.271 475.2
L325.176 482.497
L327.082 494.477
L328.987 485.67
L330.893 494.477
L334.704 469.875
L336.61 463.713
L340.421 439.04
L342.326 432.867
L344.232 439.04
L346.138 432.867
L348.043 425.401
L349.949 436.351
L351.854 444.634
L353.76 451.586
L355.665 444.634
L357.571 436.351
L361.382 413.905
L363.288 406.08
L365.193 397.369
L367.099 387.919
L369.004 397.369
L370.91 406.08
L374.721 383.106
L376.627 375.577
L378.532 386.702
L380.438 394.791
L382.343 406.08
L384.249 397.369
L386.155 406.08
L388.06 413.905
L389.966 425.401
L391.871 416.869
L393.777 407.469
L395.682 416.869
L397.588 406.08
L399.494 413.905
L401.399 420.674
L403.305 432.867
L405.21 439.04
L407.116 443.68
L409.021 439.04
L410.927 432.867
L412.833 439.04
L414.738 426.208
L416.644 439.04
L418.549 432.867
L420.455 420.674
L422.36 426.208
L426.172 451.586
L429.983 475.2
L431.888 482.497
L433.794 475.2
L435.699 463.713
L437.605 475.2
L439.51 466.12
L441.416 475.2
L443.322 466.12
L445.227 455.803
L447.133 463.713
L449.038 451.586
L450.944 456.889
L452.849 469.875
L454.755 456.889
L456.661 469.875
L458.566 473.831
L460.472 469.875
L464.283 494.477
L466.188 485.67
L468.094 475.2
L470 485.67
L471.905 494.477
L475.716 469.875
L477.622 473.831
L479.527 487.322
L481.433 489.024
L485.244 461.376
L487.15 460.232
L489.055 461.376
L490.961 447.552
L492.866 461.376
L494.772 460.232
L496.678 456.889
L500.489 482.497
L502.394 475.2
L504.3 463.713
L506.205 475.2
L508.111 482.497
L510.017 475.2
L511.922 463.713
L513.828 475.2
L515.733 485.67
L517.639 494.477
L519.544 482.497
L521.45 487.322
L525.261 460.232
L527.167 456.889
L529.072 469.875
L530.978 456.889
L534.789 482.497
L536.695 487.322
L538.6 473.831
L540.506 475.2
L542.411 473.831
L544.317 475.2
L546.222 473.831
L548.128 469.875
L550.034 463.713
L553.845 439.04
L555.75 432.867
L557.656 444.634
L559.561 436.351
L561.467 446.57
L563.373 455.803
L565.278 466.12
L567.184 475.2
L569.089 485.67
L570.995 494.477
L572.9 505.22
L574.806 494.477
L576.712 500.605
L578.617 494.477
L580.523 482.497
L582.428 494.477
L584.334 500.605
L586.239 487.322
L588.145 500.605
L590.051 494.477
L591.956 485.67
L593.862 475.2
L595.767 482.497
L597.673 494.477
L599.578 500.605
L601.484 513.409
L605.295 487.322
L609.106 513.409
L611.012 524.77
L612.917 513.409
L614.823 500.605
L616.729 502.848
L618.634 500.605
L620.54 502.848
L622.445 489.024
L624.351 502.848
L628.162 475.2
L630.067 473.831
L631.973 469.875
L633.879 473.831
L635.784 469.875
L637.69 463.713
L639.595 475.2
L643.406 451.586
L645.312 463.713
L647.218 455.803
L649.123 444.634
L651.029 436.351
L652.934 425.401
L654.84 432.867
L658.651 408.169
L660.557 401.993
L662.462 413.905
L664.368 406.08
L666.273 416.869
L668.179 425.401
L670.084 436.351
L671.99 446.57
L673.896 455.803
L675.801 463.713
L677.707 475.2
L679.612 466.12
L681.518 455.803
L683.423 463.713
L685.329 451.586
L687.235 444.634
L689.14 436.351
L691.046 427.019
L692.951 416.869
L694.857 406.08
L696.762 416.869
L698.668 406.08
L700.574 416.869
L702.479 406.08
L704.385 397.369
L706.29 407.469
L708.196 416.869
L710.101 427.019
L712.007 436.351
L713.913 427.019
L715.818 436.351
L719.629 413.905
L721.535 401.993
L723.44 394.791
L725.346 383.106
L729.157 406.08
L731.063 397.369
L732.968 386.702
L734.874 377.857
L736.779 387.919
L738.685 397.369
L740.591 387.919
L744.402 368.369
L746.307 377.857
L748.213 368.369
L750.118 377.857
L753.93 356.293
L755.835 364.077
L757.741 371.106
L759.646 364.077
L763.457 340.211
L765.363 333.306
L767.269 325.743
L771.08 302.499
L772.985 309.312
L774.891 321.415
L776.796 309.312
L782.513 344.947
L784.419 336.96
L786.324 344.947
L788.23 336.96
L790.135 325.743
L792.041 317.59
L793.947 308.906
L795.852 319.282
L797.758 309.719
L801.569 329.269
L803.474 319.282
L807.286 338.811
L809.191 347.844
L811.097 338.811
L813.002 347.844
L814.908 358.337
L816.813 347.844
L820.624 368.369
L824.436 347.844
L826.341 358.337
L828.247 367.286
L830.152 377.857
L832.058 368.369
L833.963 377.857
L835.869 368.369
L837.775 377.857
L839.68 386.702
L841.586 375.577
L843.491 386.702
L845.397 394.791
L849.208 416.869
L851.114 425.401
L853.019 413.905
L854.925 406.08
L856.83 397.369
L858.736 387.919
L860.641 397.369
L862.547 386.702
L864.453 394.791
L866.358 386.702
L868.264 377.857
L870.169 387.919
L872.075 397.369
L873.98 387.919
L875.886 397.369
L877.792 387.919
L879.697 397.369
L881.603 407.469
L883.508 397.369
L885.414 406.08
L887.319 413.905
L889.225 425.401
L891.131 413.905
L893.036 425.401
L894.942 413.905
L896.847 406.08
L898.753 413.905
L900.658 420.674
L902.564 408.169
L904.47 420.674
L906.375 408.169
L908.281 413.174
L910.186 416.869
L912.092 413.174
L913.997 416.869
L919.714 456.889
L921.62 443.68
L923.525 456.889
L925.431 443.68
L927.336 446.57
L929.242 447.552
L931.148 461.376
L933.053 460.232
L934.959 473.831
L936.864 460.232
L938.77 461.376
L940.675 447.552
L942.581 446.57
L946.392 419.138
L948.298 419.904
L950.203 406.08
L952.109 405.391
L954.014 403.342
L955.92 405.391
L957.826 403.342
L959.731 399.993
L961.637 386.702
L963.542 399.993
L965.448 395.431
L967.353 382.514
L969.259 386.702
L971.165 389.763
L973.07 376.144
L974.976 377.857
L976.881 378.432
L978.787 392.256
L980.692 391.629
L982.598 377.857
L984.504 376.144
L986.409 373.327
L990.22 399.993
L992.126 395.431
L995.937 420.674
L997.843 408.169
L999.748 401.993
L1001.65 408.169
L1003.56 401.993
L1005.46 413.905
L1007.37 401.993
L1009.28 413.905
L1011.18 406.08
L1014.99 427.019
L1016.9 436.351
L1018.8 446.57
L1020.71 436.351
L1022.61 427.019
L1024.52 416.869
L1026.43 427.019
L1028.33 416.869
L1030.24 406.08
L1032.14 416.869
L1034.05 407.469
L1037.86 386.702
L1039.77 377.857
L1041.67 386.702
L1043.58 377.857
L1045.48 386.702
L1047.39 397.369
L1049.29 386.702
L1053.1 407.469
L1055.01 397.369
L1056.92 406.08
L1058.82 416.869
L1060.73 407.469
L1064.54 386.702
L1066.44 397.369
L1070.25 375.577
L1072.16 383.106
L1074.07 389.763
L1077.88 413.905
L1079.78 401.993
L1081.69 413.905
L1083.59 406.08
L1085.5 394.791
L1087.4 401.993
L1089.31 413.905
L1091.22 401.993
L1093.12 408.169
L1098.84 369.459
L1100.74 364.608
L1102.65 351.774
L1104.55 364.608
L1106.46 358.852
L1106.46 358.852" style="fill:none;stroke:#0000ff;"/>
   </g>
   <g id="line2d_2">
    <path clip-path="url(#p308ec8ec34)" d="
M153.675 544.32
L155.581 530.496
L157.486 524.77
L159.392 513.409
L161.297 500.605
L163.203 502.848
L165.108 500.605
L167.014 494.477
L168.92 482.497
L170.825 487.322
L172.731 500.605
L174.636 487.322
L176.542 482.497
L178.447 487.322
L180.353 500.605
L182.259 494.477
L184.164 482.497
L186.07 487.322
L187.975 482.497
L189.881 475.2
L191.786 463.713
L193.692 469.875
L195.598 482.497
L197.503 475.2
L199.409 482.497
L201.314 487.322
L203.22 482.497
L205.125 494.477
L207.031 482.497
L208.937 475.2
L210.842 466.12
L212.748 455.803
L214.653 463.713
L216.559 455.803
L218.464 466.12
L220.37 455.803
L222.276 463.713
L224.181 455.803
L226.087 463.713
L227.992 475.2
L229.898 463.713
L231.803 475.2
L233.709 466.12
L235.615 455.803
L237.52 466.12
L239.426 455.803
L241.331 466.12
L243.237 455.803
L245.142 466.12
L247.048 475.2
L248.953 482.497
L250.859 469.875
L252.765 473.831
L254.67 469.875
L256.576 473.831
L258.481 487.322
L262.292 460.232
L264.198 461.376
L266.104 447.552
L268.009 461.376
L269.915 460.232
L271.82 473.831
L273.726 460.232
L277.537 487.322
L279.443 489.024
L281.348 487.322
L283.254 489.024
L285.159 487.322
L287.065 473.831
L288.97 475.2
L290.876 473.831
L294.687 446.57
L296.593 443.68
L298.498 439.04
L300.404 432.867
L302.309 444.634
L304.215 436.351
L306.121 446.57
L308.026 455.803
L309.932 463.713
L311.837 455.803
L313.743 466.12
L315.648 455.803
L317.554 444.634
L319.46 455.803
L321.365 463.713
L323.271 469.875
L325.176 473.831
L327.082 487.322
L328.987 473.831
L330.893 475.2
L332.799 473.831
L336.61 446.57
L338.515 443.68
L340.421 439.04
L342.326 432.867
L344.232 444.634
L346.138 436.351
L348.043 425.401
L349.949 436.351
L351.854 446.57
L353.76 455.803
L355.665 463.713
L357.571 451.586
L359.477 456.889
L361.382 443.68
L363.288 439.04
L365.193 451.586
L367.099 439.04
L369.004 432.867
L370.91 425.401
L374.721 401.993
L376.627 413.905
L378.532 420.674
L380.438 413.905
L382.343 420.674
L384.249 408.169
L386.155 413.174
L388.06 408.169
L389.966 401.993
L391.871 413.905
L393.777 420.674
L395.682 413.905
L397.588 401.993
L399.494 413.905
L401.399 401.993
L403.305 394.791
L405.21 401.993
L407.116 413.905
L409.021 406.08
L410.927 397.369
L412.833 406.08
L414.738 394.791
L416.644 406.08
L418.549 394.791
L420.455 386.702
L422.36 394.791
L424.266 386.702
L426.172 377.857
L428.077 387.919
L431.888 368.369
L433.794 377.857
L435.699 368.369
L437.605 377.857
L439.51 368.369
L441.416 377.857
L443.322 387.919
L445.227 397.369
L447.133 386.702
L449.038 377.857
L450.944 368.369
L452.849 377.857
L454.755 386.702
L456.661 377.857
L458.566 367.286
L460.472 358.337
L462.377 347.844
L464.283 338.811
L466.188 347.844
L468.094 338.811
L470 348.819
L471.905 338.811
L473.811 347.844
L475.716 356.293
L477.622 367.286
L479.527 375.577
L481.433 367.286
L483.339 377.857
L485.244 386.702
L487.15 397.369
L489.055 387.919
L492.866 368.369
L494.772 377.857
L496.678 367.286
L498.583 358.337
L500.489 368.369
L504.3 347.844
L506.205 358.337
L508.111 347.844
L510.017 356.293
L513.828 377.857
L515.733 387.919
L519.544 368.369
L521.45 358.337
L523.356 367.286
L525.261 358.337
L529.072 338.811
L530.978 347.844
L532.883 338.811
L534.789 348.819
L536.695 338.811
L538.6 348.819
L542.411 329.269
L550.034 367.286
L551.939 356.293
L553.845 367.286
L555.75 375.577
L557.656 386.702
L559.561 375.577
L561.467 383.106
L563.373 375.577
L565.278 364.077
L567.184 356.293
L569.089 344.947
L570.995 336.96
L574.806 358.337
L576.712 347.844
L578.617 356.293
L582.428 333.306
L584.334 325.743
L586.239 333.306
L588.145 344.947
L591.956 321.415
L593.862 327.94
L597.673 302.894
L599.578 308.095
L601.484 320.986
L603.39 308.095
L605.295 312.588
L609.106 286.066
L611.012 289.418
L614.823 316.329
L618.634 289.418
L620.54 302.894
L624.351 275.906
L626.256 278.41
L628.162 280.213
L630.067 281.3
L631.973 267.495
L633.879 281.3
L635.784 281.664
L637.69 295.488
L639.595 295.104
L641.501 293.957
L643.406 280.213
L647.218 307.691
L649.123 308.906
L651.029 295.104
L652.934 295.488
L658.651 254.016
L660.557 267.84
L662.462 267.495
L664.368 253.687
L666.273 254.016
L668.179 253.687
L671.99 226.068
L673.896 225.168
L675.801 223.675
L679.612 251.069
L681.518 252.702
L683.423 253.687
L685.329 254.016
L687.235 253.687
L689.14 239.878
L691.046 240.192
L692.951 254.016
L694.857 253.687
L696.762 254.016
L698.668 240.192
L700.574 239.878
L702.479 226.068
L704.385 239.878
L706.29 226.068
L708.196 225.168
L710.101 223.675
L712.007 237.377
L713.913 223.675
L715.818 237.377
L717.724 235.206
L721.535 262.365
L723.44 248.797
L725.346 245.901
L727.252 232.436
L729.157 245.901
L731.063 248.797
L732.968 251.069
L734.874 248.797
L736.779 245.901
L738.685 242.399
L740.591 229.084
L742.496 232.436
L744.402 229.084
L746.307 232.436
L752.024 191.876
L755.835 218.942
L757.741 215.727
L759.646 229.084
L761.552 215.727
L763.457 211.968
L765.363 215.727
L767.269 229.084
L769.174 215.727
L772.985 242.399
L776.796 215.727
L778.702 211.968
L784.419 251.395
L786.324 246.542
L788.23 251.395
L792.041 277.334
L793.947 272.019
L795.852 266.117
L797.758 253.687
L799.663 259.331
L801.569 253.687
L803.474 266.117
L805.38 259.666
L807.286 266.117
L809.191 259.666
L811.097 271.668
L813.002 259.666
L814.908 266.117
L816.813 253.687
L818.719 259.331
L820.624 272.019
L822.53 266.117
L828.247 228.479
L830.152 241.136
L832.058 246.542
L833.963 259.331
L837.775 233.664
L839.68 228.479
L841.586 233.664
L843.491 238.313
L845.397 225.168
L847.302 229.084
L849.208 242.399
L851.114 229.084
L853.019 225.168
L854.925 238.313
L856.83 225.168
L858.736 238.313
L860.641 225.168
L862.547 220.708
L864.453 225.168
L866.358 220.708
L868.264 225.168
L870.169 220.708
L872.075 215.727
L877.792 253.687
L883.508 215.727
L885.414 210.248
L887.319 204.295
L891.131 179.356
L893.036 173.383
L894.942 179.356
L896.847 191.876
L898.753 179.356
L900.658 173.383
L902.564 179.356
L904.47 191.876
L906.375 197.616
L908.281 184.896
L910.186 179.356
L912.092 166.745
L915.903 191.876
L917.809 197.616
L921.62 222.782
L923.525 210.248
L925.431 222.782
L927.336 228.479
L931.148 253.687
L933.053 241.136
L934.959 253.687
L936.864 259.331
L938.77 264.405
L940.675 259.331
L942.581 264.405
L944.487 259.331
L946.392 272.019
L948.298 277.334
L950.203 272.019
L952.109 266.117
L954.014 253.687
L955.92 247.506
L957.826 235.206
L959.731 241.136
L961.637 246.542
L963.542 233.664
L965.448 246.542
L967.353 233.664
L969.259 228.479
L971.165 215.727
L973.07 210.248
L974.976 197.616
L976.881 210.248
L978.787 197.616
L980.692 191.876
L984.504 166.745
L986.409 160.969
L988.315 154.787
L990.22 160.969
L992.126 166.745
L994.031 172.097
L995.937 184.896
L997.843 172.097
L999.748 166.745
L1001.65 179.356
L1005.46 154.052
L1007.37 166.745
L1009.28 160.969
L1011.18 148.461
L1013.09 160.969
L1014.99 148.461
L1016.9 142.472
L1018.8 130.061
L1020.71 135.868
L1022.61 130.061
L1024.52 123.879
L1028.33 135.868
L1030.24 130.061
L1032.14 142.472
L1034.05 136.102
L1037.86 148.461
L1039.77 160.969
L1041.67 154.787
L1043.58 160.969
L1045.48 173.383
L1047.39 179.356
L1049.29 173.383
L1051.2 166.998
L1053.1 160.222
L1055.01 172.097
L1056.92 160.222
L1058.82 166.998
L1060.73 154.787
L1062.63 160.969
L1064.54 166.745
L1066.44 172.097
L1068.35 177.007
L1070.25 181.456
L1072.16 194.597
L1074.07 198.72
L1075.97 211.968
L1077.88 215.727
L1079.78 202.333
L1081.69 215.727
L1083.59 211.968
L1087.4 185.428
L1089.31 188.906
L1091.22 175.45
L1093.12 188.906
L1095.03 175.45
L1096.93 178.31
L1100.74 151.125
L1102.65 164.726
L1104.55 151.125
L1106.46 164.726
L1106.46 164.726" style="fill:none;stroke:#008000;"/>
   </g>
   <g id="line2d_3">
    <path clip-path="url(#p308ec8ec34)" d="
M153.675 544.32
L155.581 530.496
L157.486 524.77
L159.392 513.409
L161.297 516.672
L163.203 513.409
L167.014 487.322
L168.92 482.497
L170.825 487.322
L172.731 473.831
L174.636 469.875
L176.542 463.713
L178.447 469.875
L180.353 473.831
L184.164 446.57
L186.07 447.552
L187.975 446.57
L189.881 460.232
L191.786 461.376
L193.692 447.552
L195.598 446.57
L197.503 443.68
L199.409 439.04
L203.22 413.174
L205.125 408.169
L207.031 413.174
L208.937 408.169
L210.842 413.174
L212.748 426.208
L214.653 430.324
L218.464 403.342
L220.37 416.869
L222.276 419.138
L227.992 460.232
L229.898 446.57
L231.803 447.552
L233.709 446.57
L235.615 460.232
L237.52 461.376
L239.426 475.2
L241.331 473.831
L243.237 487.322
L245.142 482.497
L247.048 487.322
L248.953 489.024
L250.859 502.848
L252.765 500.605
L254.67 494.477
L256.576 482.497
L258.481 475.2
L260.387 485.67
L262.292 475.2
L264.198 466.12
L266.104 475.2
L268.009 482.497
L269.915 475.2
L271.82 485.67
L273.726 494.477
L275.631 500.605
L277.537 494.477
L279.443 485.67
L281.348 494.477
L283.254 485.67
L285.159 475.2
L287.065 482.497
L288.97 469.875
L290.876 482.497
L292.782 475.2
L294.687 466.12
L296.593 455.803
L298.498 446.57
L300.404 455.803
L302.309 446.57
L304.215 455.803
L308.026 432.867
L309.932 425.401
L311.837 413.905
L313.743 406.08
L317.554 383.106
L319.46 394.791
L321.365 383.106
L323.271 394.791
L325.176 383.106
L327.082 394.791
L328.987 386.702
L330.893 377.857
L332.799 367.286
L334.704 358.337
L338.515 338.811
L340.421 328.382
L342.326 338.811
L346.138 319.282
L348.043 328.382
L351.854 306.483
L353.76 314.243
L355.665 306.483
L359.477 328.382
L361.382 336.96
L363.288 328.382
L365.193 317.59
L367.099 325.743
L369.004 333.306
L370.91 321.415
L372.816 333.306
L374.721 340.211
L378.532 364.077
L380.438 375.577
L382.343 364.077
L384.249 356.293
L386.155 347.844
L388.06 336.96
L389.966 328.382
L391.871 338.811
L393.777 328.382
L395.682 336.96
L399.494 314.243
L401.399 321.415
L405.21 344.947
L407.116 356.293
L409.021 347.844
L410.927 336.96
L412.833 328.382
L414.738 317.59
L418.549 299.748
L422.36 280.213
L426.172 259.331
L428.077 250.418
L429.983 239.878
L431.888 250.418
L435.699 229.084
L437.605 220.413
L439.51 229.084
L441.416 239.878
L443.322 230.908
L445.227 241.136
L447.133 231.519
L450.944 250.418
L452.849 239.878
L456.661 260.675
L458.566 250.418
L460.472 259.331
L462.377 250.418
L464.283 259.331
L468.094 241.136
L470 231.519
L473.811 250.418
L475.716 259.331
L479.527 241.136
L481.433 251.069
L485.244 231.519
L490.961 260.675
L496.678 231.519
L500.489 211.968
L502.394 221.595
L506.205 202.054
L508.111 211.394
L510.017 221.595
L511.922 211.968
L515.733 230.908
L519.544 211.968
L521.45 221.595
L523.356 211.394
L525.261 221.595
L527.167 230.908
L529.072 220.413
L532.883 241.136
L534.789 230.908
L536.695 239.878
L538.6 250.418
L542.411 267.84
L544.317 275.906
L546.222 283.489
L548.128 275.906
L550.034 264.405
L551.939 271.668
L553.845 264.405
L555.75 271.668
L557.656 278.41
L559.561 271.668
L561.467 259.666
L563.373 266.117
L567.184 290.545
L569.089 297.029
L570.995 309.312
L572.9 297.029
L574.806 302.894
L578.617 327.94
L580.523 333.759
L582.428 327.94
L584.334 321.415
L586.239 314.243
L588.145 306.483
L590.051 317.59
L591.956 306.483
L595.767 328.382
L599.578 309.719
L601.484 319.282
L603.39 308.906
L605.295 317.59
L607.201 328.382
L609.106 317.59
L611.012 308.906
L612.917 317.59
L616.729 299.748
L618.634 289.418
L620.54 298.191
L622.445 289.418
L626.256 267.84
L628.162 256.661
L630.067 264.405
L631.973 252.702
L633.879 245.261
L635.784 252.702
L637.69 259.666
L639.595 266.117
L641.501 259.666
L643.406 252.702
L645.312 259.666
L647.218 271.668
L649.123 264.405
L651.029 256.661
L652.934 245.261
L654.84 237.377
L656.745 245.261
L658.651 256.661
L662.462 233.664
L664.368 240.821
L666.273 233.664
L668.179 221.892
L670.084 233.664
L671.99 226.068
L673.896 214.566
L677.707 198.72
L679.612 206.833
L681.518 198.72
L683.423 206.833
L685.329 195.418
L687.235 206.833
L689.14 195.418
L691.046 206.833
L692.951 195.418
L694.857 206.833
L696.762 198.72
L698.668 209.676
L700.574 200.939
L702.479 209.676
L704.385 198.72
L706.29 209.676
L708.196 198.72
L710.101 209.676
L712.007 218.062
L715.818 200.939
L717.724 191.876
L719.629 200.939
L721.535 211.394
L723.44 200.939
L725.346 191.876
L729.157 209.676
L731.063 200.939
L732.968 209.676
L734.874 200.939
L736.779 190.253
L738.685 198.72
L742.496 181.456
L744.402 172.354
L746.307 181.456
L750.118 162.968
L753.93 181.456
L755.835 170.816
L757.741 179.356
L759.646 168.267
L761.552 179.356
L763.457 187.564
L765.363 176.228
L769.174 198.72
L772.985 176.228
L774.891 168.267
L776.796 157.001
L780.608 172.097
L784.419 195.418
L788.23 172.097
L790.135 179.094
L792.041 172.097
L793.947 179.094
L795.852 166.998
L797.758 160.222
L799.663 148.22
L801.569 160.222
L805.38 173.383
L807.286 166.998
L809.191 160.222
L811.097 148.22
L813.002 141.285
L814.908 129.37
L816.813 122.292
L818.719 129.37
L820.624 117.34
L822.53 123.879
L824.436 111.56
L826.341 105.204
L828.247 117.34
L832.058 130.061
L833.963 135.868
L835.869 148.461
L837.775 135.868
L839.68 130.061
L845.397 92.3365
L847.302 97.6529
L849.208 102.6
L851.114 107.167
L853.019 111.34
L856.83 137.744
L860.641 111.34
L862.547 124.562
L864.453 120.259
L866.358 107.167
L868.264 120.259
L870.169 107.167
L872.075 102.6
L873.98 97.6529
L875.886 102.6
L877.792 107.167
L879.697 102.6
L883.508 76.5456
L885.414 89.5965
L887.319 94.0309
L889.225 98.0809
L891.131 111.34
L893.036 115.108
L894.942 118.46
L896.847 121.387
L898.753 118.46
L900.658 115.108
L902.564 128.45
L904.47 124.562
L906.375 137.744
L908.281 141.759
L910.186 145.335
L912.092 141.759
L913.997 155.033
L915.903 150.882
L917.809 155.033
L921.62 181.456
L923.525 185.428
L929.242 145.335
L931.148 141.759
L933.053 137.744
L934.959 133.303
L936.864 146.294
L938.77 133.303
L940.675 128.45
L942.581 141.285
L944.487 128.45
L946.392 133.303
L948.298 128.45
L950.203 123.198
L952.109 135.868
L954.014 123.198
L955.92 117.563
L957.826 123.198
L959.731 110.458
L963.542 135.868
L965.448 141.285
L967.353 146.294
L969.259 159.228
L971.165 163.972
L973.07 150.882
L974.976 146.294
L980.692 184.896
L982.598 189.983
L984.504 177.007
L986.409 172.097
L988.315 159.228
L990.22 172.097
L992.126 177.007
L994.031 189.983
L995.937 194.597
L997.843 198.72
L999.748 194.597
L1001.65 198.72
L1003.56 202.333
L1005.46 205.42
L1007.37 207.968
L1009.28 205.42
L1011.18 207.968
L1013.09 209.962
L1014.99 211.394
L1018.8 183.834
L1020.71 184.63
L1022.61 183.834
L1024.52 184.63
L1026.43 198.444
L1028.33 197.616
L1030.24 198.444
L1032.14 184.63
L1034.05 198.444
L1035.95 198.72
L1037.86 184.896
L1039.77 184.63
L1041.67 183.834
L1043.58 182.511
L1045.48 180.667
L1047.39 166.998
L1049.29 180.667
L1051.2 166.998
L1053.1 164.726
L1055.01 166.998
L1056.92 168.775
L1058.82 155.033
L1060.73 156.262
L1062.63 155.033
L1064.54 141.285
L1066.44 155.033
L1070.25 127.532
L1072.16 125.93
L1074.07 127.532
L1075.97 141.285
L1077.88 127.532
L1079.78 141.285
L1081.69 127.532
L1085.5 155.033
L1087.4 141.285
L1089.31 142.472
L1091.22 143.186
L1093.12 129.37
L1095.03 128.679
L1096.93 129.37
L1098.84 143.186
L1100.74 142.472
L1102.65 143.186
L1104.55 129.37
L1106.46 129.6
L1106.46 129.6" style="fill:none;stroke:#ff0000;"/>
   </g>
   <g id="matplotlib.axis_1">
    <g id="xtick_1">
     <g id="line2d_4">
      <defs>
       <path d="
M0 0
L0 -4" id="m4858fc7940"/>
      </defs>
      <g>
       <use style="stroke:#000000;stroke-linecap:butt;stroke-width:0.5;" x="153.675" xlink:href="#m4858fc7940" y="544.32"/>
      </g>
     </g>
     <g id="line2d_5">
      <defs>
       <path d="
M0 0
L0 4" id="m882859c40e"/>
      </defs>
      <g>
       <use style="stroke:#000000;stroke-linecap:butt;stroke-width:0.5;" x="153.675" xlink:href="#m882859c40e" y="60.48"/>
      </g>
     </g>
     <g id="text_1">
      <!-- 0 -->
      <defs>
       <path d="
M31.7812 66.4062
Q24.1719 66.4062 20.3281 58.9062
Q16.5 51.4219 16.5 36.375
Q16.5 21.3906 20.3281 13.8906
Q24.1719 6.39062 31.7812 6.39062
Q39.4531 6.39062 43.2812 13.8906
Q47.125 21.3906 47.125 36.375
Q47.125 51.4219 43.2812 58.9062
Q39.4531 66.4062 31.7812 66.4062
M31.7812 74.2188
Q44.0469 74.2188 50.5156 64.5156
Q56.9844 54.8281 56.9844 36.375
Q56.9844 17.9688 50.5156 8.26562
Q44.0469 -1.42188 31.7812 -1.42188
Q19.5312 -1.42188 13.0625 8.26562
Q6.59375 17.9688 6.59375 36.375
Q6.59375 54.8281 13.0625 64.5156
Q19.5312 74.2188 31.7812 74.2188" id="BitstreamVeraSans-Roman-30"/>
      </defs>
      <g transform="translate(150.6515625 557.22625)scale(0.12 -0.12)">
       <use xlink:href="#BitstreamVeraSans-Roman-30"/>
      </g>
     </g>
    </g>
    <g id="xtick_2">
     <g id="line2d_6">
      <defs>
       <path d="
M0 0
L0 -4" id="m4858fc7940"/>
      </defs>
      <g>
       <use style="stroke:#000000;stroke-linecap:butt;stroke-width:0.5;" x="344.232" xlink:href="#m4858fc7940" y="544.32"/>
      </g>
     </g>
     <g id="line2d_7">
      <defs>
       <path d="
M0 0
L0 4" id="m882859c40e"/>
      </defs>
      <g>
       <use style="stroke:#000000;stroke-linecap:butt;stroke-width:0.5;" x="344.232" xlink:href="#m882859c40e" y="60.48"/>
      </g>
     </g>
     <g id="text_2">
      <!-- 100 -->
      <defs>
       <path d="
M12.4062 8.29688
L28.5156 8.29688
L28.5156 63.9219
L10.9844 60.4062
L10.9844 69.3906
L28.4219 72.9062
L38.2812 72.9062
L38.2812 8.29688
L54.3906 8.29688
L54.3906 0
L12.4062 0
z
" id="BitstreamVeraSans-Roman-31"/>
      </defs>
      <g transform="translate(333.837 557.22625)scale(0.12 -0.12)">
       <use xlink:href="#BitstreamVeraSans-Roman-31"/>
       <use x="63.623046875" xlink:href="#BitstreamVeraSans-Roman-30"/>
       <use x="127.24609375" xlink:href="#BitstreamVeraSans-Roman-30"/>
      </g>
     </g>
    </g>
    <g id="xtick_3">
     <g id="line2d_8">
      <defs>
       <path d="
M0 0
L0 -4" id="m4858fc7940"/>
      </defs>
      <g>
       <use style="stroke:#000000;stroke-linecap:butt;stroke-width:0.5;" x="534.789" xlink:href="#m4858fc7940" y="544.32"/>
      </g>
     </g>
     <g id="line2d_9">
      <defs>
       <path d="
M0 0
L0 4" id="m882859c40e"/>
      </defs>
      <g>
       <use style="stroke:#000000;stroke-linecap:butt;stroke-width:0.5;" x="534.789" xlink:href="#m882859c40e" y="60.48"/>
      </g>
     </g>
     <g id="text_3">
      <!-- 200 -->
      <defs>
       <path d="
M19.1875 8.29688
L53.6094 8.29688
L53.6094 0
L7.32812 0
L7.32812 8.29688
Q12.9375 14.1094 22.625 23.8906
Q32.3281 33.6875 34.8125 36.5312
Q39.5469 41.8438 41.4219 45.5312
Q43.3125 49.2188 43.3125 52.7812
Q43.3125 58.5938 39.2344 62.25
Q35.1562 65.9219 28.6094 65.9219
Q23.9688 65.9219 18.8125 64.3125
Q13.6719 62.7031 7.8125 59.4219
L7.8125 69.3906
Q13.7656 71.7812 18.9375 73
Q24.125 74.2188 28.4219 74.2188
Q39.75 74.2188 46.4844 68.5469
Q53.2188 62.8906 53.2188 53.4219
Q53.2188 48.9219 51.5312 44.8906
Q49.8594 40.875 45.4062 35.4062
Q44.1875 33.9844 37.6406 27.2188
Q31.1094 20.4531 19.1875 8.29688" id="BitstreamVeraSans-Roman-32"/>
      </defs>
      <g transform="translate(524.174625 557.22625)scale(0.12 -0.12)">
       <use xlink:href="#BitstreamVeraSans-Roman-32"/>
       <use x="63.623046875" xlink:href="#BitstreamVeraSans-Roman-30"/>
       <use x="127.24609375" xlink:href="#BitstreamVeraSans-Roman-30"/>
      </g>
     </g>
    </g>
    <g id="xtick_4">
     <g id="line2d_10">
      <defs>
       <path d="
M0 0
L0 -4" id="m4858fc7940"/>
      </defs>
      <g>
       <use style="stroke:#000000;stroke-linecap:butt;stroke-width:0.5;" x="725.346" xlink:href="#m4858fc7940" y="544.32"/>
      </g>
     </g>
     <g id="line2d_11">
      <defs>
       <path d="
M0 0
L0 4" id="m882859c40e"/>
      </defs>
      <g>
       <use style="stroke:#000000;stroke-linecap:butt;stroke-width:0.5;" x="725.346" xlink:href="#m882859c40e" y="60.48"/>
      </g>
     </g>
     <g id="text_4">
      <!-- 300 -->
      <defs>
       <path d="
M40.5781 39.3125
Q47.6562 37.7969 51.625 33
Q55.6094 28.2188 55.6094 21.1875
Q55.6094 10.4062 48.1875 4.48438
Q40.7656 -1.42188 27.0938 -1.42188
Q22.5156 -1.42188 17.6562 -0.515625
Q12.7969 0.390625 7.625 2.20312
L7.625 11.7188
Q11.7188 9.32812 16.5938 8.10938
Q21.4844 6.89062 26.8125 6.89062
Q36.0781 6.89062 40.9375 10.5469
Q45.7969 14.2031 45.7969 21.1875
Q45.7969 27.6406 41.2812 31.2656
Q36.7656 34.9062 28.7188 34.9062
L20.2188 34.9062
L20.2188 43.0156
L29.1094 43.0156
Q36.375 43.0156 40.2344 45.9219
Q44.0938 48.8281 44.0938 54.2969
Q44.0938 59.9062 40.1094 62.9062
Q36.1406 65.9219 28.7188 65.9219
Q24.6562 65.9219 20.0156 65.0312
Q15.375 64.1562 9.8125 62.3125
L9.8125 71.0938
Q15.4375 72.6562 20.3438 73.4375
Q25.25 74.2188 29.5938 74.2188
Q40.8281 74.2188 47.3594 69.1094
Q53.9062 64.0156 53.9062 55.3281
Q53.9062 49.2656 50.4375 45.0938
Q46.9688 40.9219 40.5781 39.3125" id="BitstreamVeraSans-Roman-33"/>
      </defs>
      <g transform="translate(714.7494375 557.22625)scale(0.12 -0.12)">
       <use xlink:href="#BitstreamVeraSans-Roman-33"/>
       <use x="63.623046875" xlink:href="#BitstreamVeraSans-Roman-30"/>
       <use x="127.24609375" xlink:href="#BitstreamVeraSans-Roman-30"/>
      </g>
     </g>
    </g>
    <g id="xtick_5">
     <g id="line2d_12">
      <defs>
       <path d="
M0 0
L0 -4" id="m4858fc7940"/>
      </defs>
      <g>
       <use style="stroke:#000000;stroke-linecap:butt;stroke-width:0.5;" x="915.903" xlink:href="#m4858fc7940" y="544.32"/>
      </g>
     </g>
     <g id="line2d_13">
      <defs>
       <path d="
M0 0
L0 4" id="m882859c40e"/>
      </defs>
      <g>
       <use style="stroke:#000000;stroke-linecap:butt;stroke-width:0.5;" x="915.903" xlink:href="#m882859c40e" y="60.48"/>
      </g>
     </g>
     <g id="text_5">
      <!-- 400 -->
      <defs>
       <path d="
M37.7969 64.3125
L12.8906 25.3906
L37.7969 25.3906
z

M35.2031 72.9062
L47.6094 72.9062
L47.6094 25.3906
L58.0156 25.3906
L58.0156 17.1875
L47.6094 17.1875
L47.6094 0
L37.7969 0
L37.7969 17.1875
L4.89062 17.1875
L4.89062 26.7031
z
" id="BitstreamVeraSans-Roman-34"/>
      </defs>
      <g transform="translate(905.142375 557.22625)scale(0.12 -0.12)">
       <use xlink:href="#BitstreamVeraSans-Roman-34"/>
       <use x="63.623046875" xlink:href="#BitstreamVeraSans-Roman-30"/>
       <use x="127.24609375" xlink:href="#BitstreamVeraSans-Roman-30"/>
      </g>
     </g>
    </g>
    <g id="xtick_6">
     <g id="line2d_14">
      <defs>
       <path d="
M0 0
L0 -4" id="m4858fc7940"/>
      </defs>
      <g>
       <use style="stroke:#000000;stroke-linecap:butt;stroke-width:0.5;" x="1106.46" xlink:href="#m4858fc7940" y="544.32"/>
      </g>
     </g>
     <g id="line2d_15">
      <defs>
       <path d="
M0 0
L0 4" id="m882859c40e"/>
      </defs>
      <g>
       <use style="stroke:#000000;stroke-linecap:butt;stroke-width:0.5;" x="1106.46" xlink:href="#m882859c40e" y="60.48"/>
      </g>
     </g>
     <g id="text_6">
      <!-- 500 -->
      <defs>
       <path d="
M10.7969 72.9062
L49.5156 72.9062
L49.5156 64.5938
L19.8281 64.5938
L19.8281 46.7344
Q21.9688 47.4688 24.1094 47.8281
Q26.2656 48.1875 28.4219 48.1875
Q40.625 48.1875 47.75 41.5
Q54.8906 34.8125 54.8906 23.3906
Q54.8906 11.625 47.5625 5.09375
Q40.2344 -1.42188 26.9062 -1.42188
Q22.3125 -1.42188 17.5469 -0.640625
Q12.7969 0.140625 7.71875 1.70312
L7.71875 11.625
Q12.1094 9.23438 16.7969 8.0625
Q21.4844 6.89062 26.7031 6.89062
Q35.1562 6.89062 40.0781 11.3281
Q45.0156 15.7656 45.0156 23.3906
Q45.0156 31 40.0781 35.4375
Q35.1562 39.8906 26.7031 39.8906
Q22.75 39.8906 18.8125 39.0156
Q14.8906 38.1406 10.7969 36.2812
z
" id="BitstreamVeraSans-Roman-35"/>
      </defs>
      <g transform="translate(1095.8690625 557.22625)scale(0.12 -0.12)">
       <use xlink:href="#BitstreamVeraSans-Roman-35"/>
       <use x="63.623046875" xlink:href="#BitstreamVeraSans-Roman-30"/>
       <use x="127.24609375" xlink:href="#BitstreamVeraSans-Roman-30"/>
      </g>
     </g>
    </g>
    <g id="text_7">
     <!-- Time -->
     <defs>
      <path d="
M56.2031 29.5938
L56.2031 25.2031
L14.8906 25.2031
Q15.4844 15.9219 20.4844 11.0625
Q25.4844 6.20312 34.4219 6.20312
Q39.5938 6.20312 44.4531 7.46875
Q49.3125 8.73438 54.1094 11.2812
L54.1094 2.78125
Q49.2656 0.734375 44.1875 -0.34375
Q39.1094 -1.42188 33.8906 -1.42188
Q20.7969 -1.42188 13.1562 6.1875
Q5.51562 13.8125 5.51562 26.8125
Q5.51562 40.2344 12.7656 48.1094
Q20.0156 56 32.3281 56
Q43.3594 56 49.7812 48.8906
Q56.2031 41.7969 56.2031 29.5938
M47.2188 32.2344
Q47.125 39.5938 43.0938 43.9844
Q39.0625 48.3906 32.4219 48.3906
Q24.9062 48.3906 20.3906 44.1406
Q15.875 39.8906 15.1875 32.1719
z
" id="BitstreamVeraSans-Roman-65"/>
      <path d="
M9.42188 54.6875
L18.4062 54.6875
L18.4062 0
L9.42188 0
z

M9.42188 75.9844
L18.4062 75.9844
L18.4062 64.5938
L9.42188 64.5938
z
" id="BitstreamVeraSans-Roman-69"/>
      <path d="
M-0.296875 72.9062
L61.375 72.9062
L61.375 64.5938
L35.5 64.5938
L35.5 0
L25.5938 0
L25.5938 64.5938
L-0.296875 64.5938
z
" id="BitstreamVeraSans-Roman-54"/>
      <path d="
M52 44.1875
Q55.375 50.25 60.0625 53.125
Q64.75 56 71.0938 56
Q79.6406 56 84.2812 50.0156
Q88.9219 44.0469 88.9219 33.0156
L88.9219 0
L79.8906 0
L79.8906 32.7188
Q79.8906 40.5781 77.0938 44.375
Q74.3125 48.1875 68.6094 48.1875
Q61.625 48.1875 57.5625 43.5469
Q53.5156 38.9219 53.5156 30.9062
L53.5156 0
L44.4844 0
L44.4844 32.7188
Q44.4844 40.625 41.7031 44.4062
Q38.9219 48.1875 33.1094 48.1875
Q26.2188 48.1875 22.1562 43.5312
Q18.1094 38.875 18.1094 30.9062
L18.1094 0
L9.07812 0
L9.07812 54.6875
L18.1094 54.6875
L18.1094 46.1875
Q21.1875 51.2188 25.4844 53.6094
Q29.7812 56 35.6875 56
Q41.6562 56 45.8281 52.9688
Q50 49.9531 52 44.1875" id="BitstreamVeraSans-Roman-6d"/>
     </defs>
     <g transform="translate(615.6890625 571.515)scale(0.12 -0.12)">
      <use xlink:href="#BitstreamVeraSans-Roman-54"/>
      <use x="57.958984375" xlink:href="#BitstreamVeraSans-Roman-69"/>
      <use x="85.7421875" xlink:href="#BitstreamVeraSans-Roman-6d"/>
      <use x="183.154296875" xlink:href="#BitstreamVeraSans-Roman-65"/>
     </g>
    </g>
   </g>
   <g id="matplotlib.axis_2">
    <g id="ytick_1">
     <g id="line2d_16">
      <defs>
       <path d="
M0 0
L4 0" id="mdaa2e7b1d3"/>
      </defs>
      <g>
       <use style="stroke:#000000;stroke-linecap:butt;stroke-width:0.5;" x="153.675" xlink:href="#mdaa2e7b1d3" y="544.32"/>
      </g>
     </g>
     <g id="line2d_17">
      <defs>
       <path d="
M0 0
L-4 0" id="md74d9d18ae"/>
      </defs>
      <g>
       <use style="stroke:#000000;stroke-linecap:butt;stroke-width:0.5;" x="1106.46" xlink:href="#md74d9d18ae" y="544.32"/>
      </g>
     </g>
     <g id="text_8">
      <!-- 0 -->
      <g transform="translate(143.628125 548.6878125)scale(0.12 -0.12)">
       <use xlink:href="#BitstreamVeraSans-Roman-30"/>
      </g>
     </g>
    </g>
    <g id="ytick_2">
     <g id="line2d_18">
      <defs>
       <path d="
M0 0
L4 0" id="mdaa2e7b1d3"/>
      </defs>
      <g>
       <use style="stroke:#000000;stroke-linecap:butt;stroke-width:0.5;" x="153.675" xlink:href="#mdaa2e7b1d3" y="475.2"/>
      </g>
     </g>
     <g id="line2d_19">
      <defs>
       <path d="
M0 0
L-4 0" id="md74d9d18ae"/>
      </defs>
      <g>
       <use style="stroke:#000000;stroke-linecap:butt;stroke-width:0.5;" x="1106.46" xlink:href="#md74d9d18ae" y="475.2"/>
      </g>
     </g>
     <g id="text_9">
      <!-- 5 -->
      <g transform="translate(144.014375 479.4890625)scale(0.12 -0.12)">
       <use xlink:href="#BitstreamVeraSans-Roman-35"/>
      </g>
     </g>
    </g>
    <g id="ytick_3">
     <g id="line2d_20">
      <defs>
       <path d="
M0 0
L4 0" id="mdaa2e7b1d3"/>
      </defs>
      <g>
       <use style="stroke:#000000;stroke-linecap:butt;stroke-width:0.5;" x="153.675" xlink:href="#mdaa2e7b1d3" y="406.08"/>
      </g>
     </g>
     <g id="line2d_21">
      <defs>
       <path d="
M0 0
L-4 0" id="md74d9d18ae"/>
      </defs>
      <g>
       <use style="stroke:#000000;stroke-linecap:butt;stroke-width:0.5;" x="1106.46" xlink:href="#md74d9d18ae" y="406.08"/>
      </g>
     </g>
     <g id="text_10">
      <!-- 10 -->
      <g transform="translate(136.52 410.4478125)scale(0.12 -0.12)">
       <use xlink:href="#BitstreamVeraSans-Roman-31"/>
       <use x="63.623046875" xlink:href="#BitstreamVeraSans-Roman-30"/>
      </g>
     </g>
    </g>
    <g id="ytick_4">
     <g id="line2d_22">
      <defs>
       <path d="
M0 0
L4 0" id="mdaa2e7b1d3"/>
      </defs>
      <g>
       <use style="stroke:#000000;stroke-linecap:butt;stroke-width:0.5;" x="153.675" xlink:href="#mdaa2e7b1d3" y="336.96"/>
      </g>
     </g>
     <g id="line2d_23">
      <defs>
       <path d="
M0 0
L-4 0" id="md74d9d18ae"/>
      </defs>
      <g>
       <use style="stroke:#000000;stroke-linecap:butt;stroke-width:0.5;" x="1106.46" xlink:href="#md74d9d18ae" y="336.96"/>
      </g>
     </g>
     <g id="text_11">
      <!-- 15 -->
      <g transform="translate(136.77125 341.2490625)scale(0.12 -0.12)">
       <use xlink:href="#BitstreamVeraSans-Roman-31"/>
       <use x="63.623046875" xlink:href="#BitstreamVeraSans-Roman-35"/>
      </g>
     </g>
    </g>
    <g id="ytick_5">
     <g id="line2d_24">
      <defs>
       <path d="
M0 0
L4 0" id="mdaa2e7b1d3"/>
      </defs>
      <g>
       <use style="stroke:#000000;stroke-linecap:butt;stroke-width:0.5;" x="153.675" xlink:href="#mdaa2e7b1d3" y="267.84"/>
      </g>
     </g>
     <g id="line2d_25">
      <defs>
       <path d="
M0 0
L-4 0" id="md74d9d18ae"/>
      </defs>
      <g>
       <use style="stroke:#000000;stroke-linecap:butt;stroke-width:0.5;" x="1106.46" xlink:href="#md74d9d18ae" y="267.84"/>
      </g>
     </g>
     <g id="text_12">
      <!-- 20 -->
      <g transform="translate(136.08125 272.2078125)scale(0.12 -0.12)">
       <use xlink:href="#BitstreamVeraSans-Roman-32"/>
       <use x="63.623046875" xlink:href="#BitstreamVeraSans-Roman-30"/>
      </g>
     </g>
    </g>
    <g id="ytick_6">
     <g id="line2d_26">
      <defs>
       <path d="
M0 0
L4 0" id="mdaa2e7b1d3"/>
      </defs>
      <g>
       <use style="stroke:#000000;stroke-linecap:butt;stroke-width:0.5;" x="153.675" xlink:href="#mdaa2e7b1d3" y="198.72"/>
      </g>
     </g>
     <g id="line2d_27">
      <defs>
       <path d="
M0 0
L-4 0" id="md74d9d18ae"/>
      </defs>
      <g>
       <use style="stroke:#000000;stroke-linecap:butt;stroke-width:0.5;" x="1106.46" xlink:href="#md74d9d18ae" y="198.72"/>
      </g>
     </g>
     <g id="text_13">
      <!-- 25 -->
      <g transform="translate(136.3325 203.0878125)scale(0.12 -0.12)">
       <use xlink:href="#BitstreamVeraSans-Roman-32"/>
       <use x="63.623046875" xlink:href="#BitstreamVeraSans-Roman-35"/>
      </g>
     </g>
    </g>
    <g id="ytick_7">
     <g id="line2d_28">
      <defs>
       <path d="
M0 0
L4 0" id="mdaa2e7b1d3"/>
      </defs>
      <g>
       <use style="stroke:#000000;stroke-linecap:butt;stroke-width:0.5;" x="153.675" xlink:href="#mdaa2e7b1d3" y="129.6"/>
      </g>
     </g>
     <g id="line2d_29">
      <defs>
       <path d="
M0 0
L-4 0" id="md74d9d18ae"/>
      </defs>
      <g>
       <use style="stroke:#000000;stroke-linecap:butt;stroke-width:0.5;" x="1106.46" xlink:href="#md74d9d18ae" y="129.6"/>
      </g>
     </g>
     <g id="text_14">
      <!-- 30 -->
      <g transform="translate(136.116875 133.9678125)scale(0.12 -0.12)">
       <use xlink:href="#BitstreamVeraSans-Roman-33"/>
       <use x="63.623046875" xlink:href="#BitstreamVeraSans-Roman-30"/>
      </g>
     </g>
    </g>
    <g id="ytick_8">
     <g id="line2d_30">
      <defs>
       <path d="
M0 0
L4 0" id="mdaa2e7b1d3"/>
      </defs>
      <g>
       <use style="stroke:#000000;stroke-linecap:butt;stroke-width:0.5;" x="153.675" xlink:href="#mdaa2e7b1d3" y="60.48"/>
      </g>
     </g>
     <g id="line2d_31">
      <defs>
       <path d="
M0 0
L-4 0" id="md74d9d18ae"/>
      </defs>
      <g>
       <use style="stroke:#000000;stroke-linecap:butt;stroke-width:0.5;" x="1106.46" xlink:href="#md74d9d18ae" y="60.48"/>
      </g>
     </g>
     <g id="text_15">
      <!-- 35 -->
      <g transform="translate(136.368125 64.8478125)scale(0.12 -0.12)">
       <use xlink:href="#BitstreamVeraSans-Roman-33"/>
       <use x="63.623046875" xlink:href="#BitstreamVeraSans-Roman-35"/>
      </g>
     </g>
    </g>
    <g id="text_16">
     <!-- Distance from Origin -->
     <defs>
      <path id="BitstreamVeraSans-Roman-20"/>
      <path d="
M39.4062 66.2188
Q28.6562 66.2188 22.3281 58.2031
Q16.0156 50.2031 16.0156 36.375
Q16.0156 22.6094 22.3281 14.5938
Q28.6562 6.59375 39.4062 6.59375
Q50.1406 6.59375 56.4219 14.5938
Q62.7031 22.6094 62.7031 36.375
Q62.7031 50.2031 56.4219 58.2031
Q50.1406 66.2188 39.4062 66.2188
M39.4062 74.2188
Q54.7344 74.2188 63.9062 63.9375
Q73.0938 53.6562 73.0938 36.375
Q73.0938 19.1406 63.9062 8.85938
Q54.7344 -1.42188 39.4062 -1.42188
Q24.0312 -1.42188 14.8125 8.82812
Q5.60938 19.0938 5.60938 36.375
Q5.60938 53.6562 14.8125 63.9375
Q24.0312 74.2188 39.4062 74.2188" id="BitstreamVeraSans-Roman-4f"/>
      <path d="
M54.8906 33.0156
L54.8906 0
L45.9062 0
L45.9062 32.7188
Q45.9062 40.4844 42.875 44.3281
Q39.8438 48.1875 33.7969 48.1875
Q26.5156 48.1875 22.3125 43.5469
Q18.1094 38.9219 18.1094 30.9062
L18.1094 0
L9.07812 0
L9.07812 54.6875
L18.1094 54.6875
L18.1094 46.1875
Q21.3438 51.125 25.7031 53.5625
Q30.0781 56 35.7969 56
Q45.2188 56 50.0469 50.1719
Q54.8906 44.3438 54.8906 33.0156" id="BitstreamVeraSans-Roman-6e"/>
      <path d="
M41.1094 46.2969
Q39.5938 47.1719 37.8125 47.5781
Q36.0312 48 33.8906 48
Q26.2656 48 22.1875 43.0469
Q18.1094 38.0938 18.1094 28.8125
L18.1094 0
L9.07812 0
L9.07812 54.6875
L18.1094 54.6875
L18.1094 46.1875
Q20.9531 51.1719 25.4844 53.5781
Q30.0312 56 36.5312 56
Q37.4531 56 38.5781 55.875
Q39.7031 55.7656 41.0625 55.5156
z
" id="BitstreamVeraSans-Roman-72"/>
      <path d="
M30.6094 48.3906
Q23.3906 48.3906 19.1875 42.75
Q14.9844 37.1094 14.9844 27.2969
Q14.9844 17.4844 19.1562 11.8438
Q23.3438 6.20312 30.6094 6.20312
Q37.7969 6.20312 41.9844 11.8594
Q46.1875 17.5312 46.1875 27.2969
Q46.1875 37.0156 41.9844 42.7031
Q37.7969 48.3906 30.6094 48.3906
M30.6094 56
Q42.3281 56 49.0156 48.375
Q55.7188 40.7656 55.7188 27.2969
Q55.7188 13.875 49.0156 6.21875
Q42.3281 -1.42188 30.6094 -1.42188
Q18.8438 -1.42188 12.1719 6.21875
Q5.51562 13.875 5.51562 27.2969
Q5.51562 40.7656 12.1719 48.375
Q18.8438 56 30.6094 56" id="BitstreamVeraSans-Roman-6f"/>
      <path d="
M19.6719 64.7969
L19.6719 8.10938
L31.5938 8.10938
Q46.6875 8.10938 53.6875 14.9375
Q60.6875 21.7812 60.6875 36.5312
Q60.6875 51.1719 53.6875 57.9844
Q46.6875 64.7969 31.5938 64.7969
z

M9.8125 72.9062
L30.0781 72.9062
Q51.2656 72.9062 61.1719 64.0938
Q71.0938 55.2812 71.0938 36.5312
Q71.0938 17.6719 61.125 8.82812
Q51.1719 0 30.0781 0
L9.8125 0
z
" id="BitstreamVeraSans-Roman-44"/>
      <path d="
M45.4062 27.9844
Q45.4062 37.75 41.375 43.1094
Q37.3594 48.4844 30.0781 48.4844
Q22.8594 48.4844 18.8281 43.1094
Q14.7969 37.75 14.7969 27.9844
Q14.7969 18.2656 18.8281 12.8906
Q22.8594 7.51562 30.0781 7.51562
Q37.3594 7.51562 41.375 12.8906
Q45.4062 18.2656 45.4062 27.9844
M54.3906 6.78125
Q54.3906 -7.17188 48.1875 -13.9844
Q42 -20.7969 29.2031 -20.7969
Q24.4688 -20.7969 20.2656 -20.0938
Q16.0625 -19.3906 12.1094 -17.9219
L12.1094 -9.1875
Q16.0625 -11.3281 19.9219 -12.3438
Q23.7812 -13.375 27.7812 -13.375
Q36.625 -13.375 41.0156 -8.76562
Q45.4062 -4.15625 45.4062 5.17188
L45.4062 9.625
Q42.625 4.78125 38.2812 2.39062
Q33.9375 0 27.875 0
Q17.8281 0 11.6719 7.65625
Q5.51562 15.3281 5.51562 27.9844
Q5.51562 40.6719 11.6719 48.3281
Q17.8281 56 27.875 56
Q33.9375 56 38.2812 53.6094
Q42.625 51.2188 45.4062 46.3906
L45.4062 54.6875
L54.3906 54.6875
z
" id="BitstreamVeraSans-Roman-67"/>
      <path d="
M18.3125 70.2188
L18.3125 54.6875
L36.8125 54.6875
L36.8125 47.7031
L18.3125 47.7031
L18.3125 18.0156
Q18.3125 11.3281 20.1406 9.42188
Q21.9688 7.51562 27.5938 7.51562
L36.8125 7.51562
L36.8125 0
L27.5938 0
Q17.1875 0 13.2344 3.875
Q9.28125 7.76562 9.28125 18.0156
L9.28125 47.7031
L2.6875 47.7031
L2.6875 54.6875
L9.28125 54.6875
L9.28125 70.2188
z
" id="BitstreamVeraSans-Roman-74"/>
      <path d="
M37.1094 75.9844
L37.1094 68.5
L28.5156 68.5
Q23.6875 68.5 21.7969 66.5469
Q19.9219 64.5938 19.9219 59.5156
L19.9219 54.6875
L34.7188 54.6875
L34.7188 47.7031
L19.9219 47.7031
L19.9219 0
L10.8906 0
L10.8906 47.7031
L2.29688 47.7031
L2.29688 54.6875
L10.8906 54.6875
L10.8906 58.5
Q10.8906 67.625 15.1406 71.7969
Q19.3906 75.9844 28.6094 75.9844
z
" id="BitstreamVeraSans-Roman-66"/>
      <path d="
M34.2812 27.4844
Q23.3906 27.4844 19.1875 25
Q14.9844 22.5156 14.9844 16.5
Q14.9844 11.7188 18.1406 8.90625
Q21.2969 6.10938 26.7031 6.10938
Q34.1875 6.10938 38.7031 11.4062
Q43.2188 16.7031 43.2188 25.4844
L43.2188 27.4844
z

M52.2031 31.2031
L52.2031 0
L43.2188 0
L43.2188 8.29688
Q40.1406 3.32812 35.5469 0.953125
Q30.9531 -1.42188 24.3125 -1.42188
Q15.9219 -1.42188 10.9531 3.29688
Q6 8.01562 6 15.9219
Q6 25.1406 12.1719 29.8281
Q18.3594 34.5156 30.6094 34.5156
L43.2188 34.5156
L43.2188 35.4062
Q43.2188 41.6094 39.1406 45
Q35.0625 48.3906 27.6875 48.3906
Q23 48.3906 18.5469 47.2656
Q14.1094 46.1406 10.0156 43.8906
L10.0156 52.2031
Q14.9375 54.1094 19.5781 55.0469
Q24.2188 56 28.6094 56
Q40.4844 56 46.3438 49.8438
Q52.2031 43.7031 52.2031 31.2031" id="BitstreamVeraSans-Roman-61"/>
      <path d="
M44.2812 53.0781
L44.2812 44.5781
Q40.4844 46.5312 36.375 47.5
Q32.2812 48.4844 27.875 48.4844
Q21.1875 48.4844 17.8438 46.4375
Q14.5 44.3906 14.5 40.2812
Q14.5 37.1562 16.8906 35.375
Q19.2812 33.5938 26.5156 31.9844
L29.5938 31.2969
Q39.1562 29.25 43.1875 25.5156
Q47.2188 21.7812 47.2188 15.0938
Q47.2188 7.46875 41.1875 3.01562
Q35.1562 -1.42188 24.6094 -1.42188
Q20.2188 -1.42188 15.4531 -0.5625
Q10.6875 0.296875 5.42188 2
L5.42188 11.2812
Q10.4062 8.6875 15.2344 7.39062
Q20.0625 6.10938 24.8125 6.10938
Q31.1562 6.10938 34.5625 8.28125
Q37.9844 10.4531 37.9844 14.4062
Q37.9844 18.0625 35.5156 20.0156
Q33.0625 21.9688 24.7031 23.7812
L21.5781 24.5156
Q13.2344 26.2656 9.51562 29.9062
Q5.8125 33.5469 5.8125 39.8906
Q5.8125 47.6094 11.2812 51.7969
Q16.75 56 26.8125 56
Q31.7812 56 36.1719 55.2656
Q40.5781 54.5469 44.2812 53.0781" id="BitstreamVeraSans-Roman-73"/>
      <path d="
M48.7812 52.5938
L48.7812 44.1875
Q44.9688 46.2969 41.1406 47.3438
Q37.3125 48.3906 33.4062 48.3906
Q24.6562 48.3906 19.8125 42.8438
Q14.9844 37.3125 14.9844 27.2969
Q14.9844 17.2812 19.8125 11.7344
Q24.6562 6.20312 33.4062 6.20312
Q37.3125 6.20312 41.1406 7.25
Q44.9688 8.29688 48.7812 10.4062
L48.7812 2.09375
Q45.0156 0.34375 40.9844 -0.53125
Q36.9688 -1.42188 32.4219 -1.42188
Q20.0625 -1.42188 12.7812 6.34375
Q5.51562 14.1094 5.51562 27.2969
Q5.51562 40.6719 12.8594 48.3281
Q20.2188 56 33.0156 56
Q37.1562 56 41.1094 55.1406
Q45.0625 54.2969 48.7812 52.5938" id="BitstreamVeraSans-Roman-63"/>
     </defs>
     <g transform="translate(131.08125 361.5384375)rotate(-90.0)scale(0.12 -0.12)">
      <use xlink:href="#BitstreamVeraSans-Roman-44"/>
      <use x="77.001953125" xlink:href="#BitstreamVeraSans-Roman-69"/>
      <use x="104.78515625" xlink:href="#BitstreamVeraSans-Roman-73"/>
      <use x="156.884765625" xlink:href="#BitstreamVeraSans-Roman-74"/>
      <use x="196.09375" xlink:href="#BitstreamVeraSans-Roman-61"/>
      <use x="257.373046875" xlink:href="#BitstreamVeraSans-Roman-6e"/>
      <use x="320.751953125" xlink:href="#BitstreamVeraSans-Roman-63"/>
      <use x="375.732421875" xlink:href="#BitstreamVeraSans-Roman-65"/>
      <use x="437.255859375" xlink:href="#BitstreamVeraSans-Roman-20"/>
      <use x="469.04296875" xlink:href="#BitstreamVeraSans-Roman-66"/>
      <use x="504.248046875" xlink:href="#BitstreamVeraSans-Roman-72"/>
      <use x="543.111328125" xlink:href="#BitstreamVeraSans-Roman-6f"/>
      <use x="604.29296875" xlink:href="#BitstreamVeraSans-Roman-6d"/>
      <use x="701.705078125" xlink:href="#BitstreamVeraSans-Roman-20"/>
      <use x="733.4921875" xlink:href="#BitstreamVeraSans-Roman-4f"/>
      <use x="812.203125" xlink:href="#BitstreamVeraSans-Roman-72"/>
      <use x="853.31640625" xlink:href="#BitstreamVeraSans-Roman-69"/>
      <use x="881.099609375" xlink:href="#BitstreamVeraSans-Roman-67"/>
      <use x="944.576171875" xlink:href="#BitstreamVeraSans-Roman-69"/>
      <use x="972.359375" xlink:href="#BitstreamVeraSans-Roman-6e"/>
     </g>
    </g>
   </g>
   <g id="patch_3">
    <path d="
M153.675 60.48
L1106.46 60.48" style="fill:none;stroke:#000000;"/>
   </g>
   <g id="patch_4">
    <path d="
M1106.46 544.32
L1106.46 60.48" style="fill:none;stroke:#000000;"/>
   </g>
   <g id="patch_5">
    <path d="
M153.675 544.32
L1106.46 544.32" style="fill:none;stroke:#000000;"/>
   </g>
   <g id="patch_6">
    <path d="
M153.675 544.32
L153.675 60.48" style="fill:none;stroke:#000000;"/>
   </g>
   <g id="text_17">
    <!-- Homer's Random Walk -->
    <defs>
     <path d="
M17.9219 72.9062
L17.9219 45.7969
L9.625 45.7969
L9.625 72.9062
z
" id="BitstreamVeraSans-Roman-27"/>
     <path d="
M9.42188 75.9844
L18.4062 75.9844
L18.4062 0
L9.42188 0
z
" id="BitstreamVeraSans-Roman-6c"/>
     <path d="
M9.07812 75.9844
L18.1094 75.9844
L18.1094 31.1094
L44.9219 54.6875
L56.3906 54.6875
L27.3906 29.1094
L57.625 0
L45.9062 0
L18.1094 26.7031
L18.1094 0
L9.07812 0
z
" id="BitstreamVeraSans-Roman-6b"/>
     <path d="
M44.3906 34.1875
Q47.5625 33.1094 50.5625 29.5938
Q53.5625 26.0781 56.5938 19.9219
L66.6094 0
L56 0
L46.6875 18.7031
Q43.0625 26.0312 39.6719 28.4219
Q36.2812 30.8125 30.4219 30.8125
L19.6719 30.8125
L19.6719 0
L9.8125 0
L9.8125 72.9062
L32.0781 72.9062
Q44.5781 72.9062 50.7344 67.6719
Q56.8906 62.4531 56.8906 51.9062
Q56.8906 45.0156 53.6875 40.4688
Q50.4844 35.9375 44.3906 34.1875
M19.6719 64.7969
L19.6719 38.9219
L32.0781 38.9219
Q39.2031 38.9219 42.8438 42.2188
Q46.4844 45.5156 46.4844 51.9062
Q46.4844 58.2969 42.8438 61.5469
Q39.2031 64.7969 32.0781 64.7969
z
" id="BitstreamVeraSans-Roman-52"/>
     <path d="
M3.32812 72.9062
L13.2812 72.9062
L28.6094 11.2812
L43.8906 72.9062
L54.9844 72.9062
L70.3125 11.2812
L85.5938 72.9062
L95.6094 72.9062
L77.2969 0
L64.8906 0
L49.5156 63.2812
L33.9844 0
L21.5781 0
z
" id="BitstreamVeraSans-Roman-57"/>
     <path d="
M45.4062 46.3906
L45.4062 75.9844
L54.3906 75.9844
L54.3906 0
L45.4062 0
L45.4062 8.20312
Q42.5781 3.32812 38.25 0.953125
Q33.9375 -1.42188 27.875 -1.42188
Q17.9688 -1.42188 11.7344 6.48438
Q5.51562 14.4062 5.51562 27.2969
Q5.51562 40.1875 11.7344 48.0938
Q17.9688 56 27.875 56
Q33.9375 56 38.25 53.625
Q42.5781 51.2656 45.4062 46.3906
M14.7969 27.2969
Q14.7969 17.3906 18.875 11.75
Q22.9531 6.10938 30.0781 6.10938
Q37.2031 6.10938 41.2969 11.75
Q45.4062 17.3906 45.4062 27.2969
Q45.4062 37.2031 41.2969 42.8438
Q37.2031 48.4844 30.0781 48.4844
Q22.9531 48.4844 18.875 42.8438
Q14.7969 37.2031 14.7969 27.2969" id="BitstreamVeraSans-Roman-64"/>
     <path d="
M9.8125 72.9062
L19.6719 72.9062
L19.6719 43.0156
L55.5156 43.0156
L55.5156 72.9062
L65.375 72.9062
L65.375 0
L55.5156 0
L55.5156 34.7188
L19.6719 34.7188
L19.6719 0
L9.8125 0
z
" id="BitstreamVeraSans-Roman-48"/>
    </defs>
    <g transform="translate(548.510625 55.48)scale(0.144 -0.144)">
     <use xlink:href="#BitstreamVeraSans-Roman-48"/>
     <use x="75.1953125" xlink:href="#BitstreamVeraSans-Roman-6f"/>
     <use x="136.376953125" xlink:href="#BitstreamVeraSans-Roman-6d"/>
     <use x="233.7890625" xlink:href="#BitstreamVeraSans-Roman-65"/>
     <use x="295.3125" xlink:href="#BitstreamVeraSans-Roman-72"/>
     <use x="336.42578125" xlink:href="#BitstreamVeraSans-Roman-27"/>
     <use x="363.916015625" xlink:href="#BitstreamVeraSans-Roman-73"/>
     <use x="416.015625" xlink:href="#BitstreamVeraSans-Roman-20"/>
     <use x="447.802734375" xlink:href="#BitstreamVeraSans-Roman-52"/>
     <use x="515.03515625" xlink:href="#BitstreamVeraSans-Roman-61"/>
     <use x="576.314453125" xlink:href="#BitstreamVeraSans-Roman-6e"/>
     <use x="639.693359375" xlink:href="#BitstreamVeraSans-Roman-64"/>
     <use x="703.169921875" xlink:href="#BitstreamVeraSans-Roman-6f"/>
     <use x="764.3515625" xlink:href="#BitstreamVeraSans-Roman-6d"/>
     <use x="861.763671875" xlink:href="#BitstreamVeraSans-Roman-20"/>
     <use x="893.55078125" xlink:href="#BitstreamVeraSans-Roman-57"/>
     <use x="986.052734375" xlink:href="#BitstreamVeraSans-Roman-61"/>
     <use x="1047.33203125" xlink:href="#BitstreamVeraSans-Roman-6c"/>
     <use x="1075.11523438" xlink:href="#BitstreamVeraSans-Roman-6b"/>
    </g>
   </g>
  </g>
 </g>
 <defs>
  <clipPath id="p308ec8ec34">
   <rect height="483.84" width="952.785" x="153.675" y="60.48"/>
  </clipPath>
 </defs>
</svg>
